<svg width="22" height="26" viewBox="0 0 22 26" fill="none" xmlns="http://www.w3.org/2000/svg">
<g clip-path="url(#clip0_66_1914)">
<path d="M12.4486 4.40332C12.4486 3.53906 11.7607 2.84082 10.9092 2.84082C10.0577 2.84082 9.36982 3.53906 9.36982 4.40332V11.4346H2.44248C1.591 11.4346 0.903076 12.1328 0.903076 12.9971C0.903076 13.8613 1.591 14.5596 2.44248 14.5596H9.36982V21.5908C9.36982 22.4551 10.0577 23.1533 10.9092 23.1533C11.7607 23.1533 12.4486 22.4551 12.4486 21.5908V14.5596H19.376C20.2275 14.5596 20.9154 13.8613 20.9154 12.9971C20.9154 12.1328 20.2275 11.4346 19.376 11.4346H12.4486V4.40332Z" fill="#808080"/>
</g>
<defs>
<clipPath id="clip0_66_1914">
<rect width="21.5517" height="25" fill="white" transform="translate(0.133301 0.49707)"/>
</clipPath>
</defs>
</svg>
