<svg width="36" height="31" viewBox="0 0 36 31" fill="none" xmlns="http://www.w3.org/2000/svg">
<path d="M17.5035 1.31331L1.30208 17.6544C-0.434028 19.4054 -0.434028 22.2422 1.30208 23.9933L6.85764 29.5967C7.69097 30.4372 8.82292 30.9065 10.0035 30.9065H17.316H17.9687H32.8715C34.1007 30.9065 35.0938 29.9049 35.0938 28.6651C35.0938 27.4254 34.1007 26.4238 32.8715 26.4238H24.2535L33.3299 17.2761C35.066 15.5251 35.066 12.6883 33.3299 10.9372L23.7951 1.31331C22.059 -0.437769 19.2465 -0.437769 17.5104 1.31331H17.5035ZM17.9687 26.4308H17.316H9.99653L4.44097 20.8273L13.1007 12.0929L22.6424 21.7169L17.9687 26.4308Z" fill="white"/>
</svg>
