<svg width="57" height="40" viewBox="0 0 57 40" fill="none" xmlns="http://www.w3.org/2000/svg">
<path d="M46.2271 9.25709C46.6938 9.65075 47.1338 10.0497 47.5542 10.4487L26.8952 31.1077C26.0759 31.0881 25.2885 31.0364 24.5137 30.9705L46.2271 9.25709ZM31.6636 30.9456C32.6736 30.8476 33.6515 30.7122 34.5849 30.543L50.9207 14.2072C50.5787 13.7583 50.2207 13.2774 49.811 12.7982L31.6636 30.9456ZM18.4432 29.916C19.0987 30.0924 19.7774 30.2562 20.4774 30.4005L43.6158 7.26209C43.1153 6.929 42.588 6.62262 42.0483 6.3109L18.4432 29.916ZM41.0793 28.6531C43.3255 27.7821 44.9518 26.8006 46.4712 25.78L53.6906 18.5606C53.614 18.3985 53.3236 17.8213 52.7928 16.9396L41.0793 28.6531ZM33.5037 3.12425C32.7965 2.98887 32.052 2.8909 31.302 2.80719L8.73361 25.3756C9.21098 25.7141 9.72398 26.0382 10.2584 26.3696L33.5037 3.12425ZM13.2277 28.0065C13.7888 28.2719 14.382 28.5213 14.9894 28.7636L38.9596 4.79328C38.37 4.54569 37.7769 4.29987 37.1463 4.0879L13.2277 28.0065ZM13.2544 6.60481L3.14939 16.7098C2.41729 17.8962 2.07886 18.6478 2.07886 18.6478C2.07886 18.6478 2.31042 19.029 2.75217 19.6257L18.0798 4.29809C16.2968 4.95181 14.715 5.7124 13.2544 6.60481ZM24.1272 2.85706L4.88789 22.0963C5.27442 22.4918 5.69658 22.9086 6.17039 23.3325L26.8596 2.64331C25.9298 2.67537 24.9982 2.7484 24.1272 2.85706Z" fill="#84C7AE"/>
<path d="M55.8494 28.7013L51.4212 24.1378C53.9345 21.7527 55.1476 19.7595 55.2705 19.551C55.5644 19.0505 55.5964 18.436 55.3542 17.9069C55.0354 17.2105 47.3225 0.835449 27.9069 0.835449C8.49129 0.835449 0.778481 17.2105 0.459637 17.9069C0.217387 18.436 0.249449 19.0487 0.543356 19.551C0.675168 19.7755 2.0877 22.0733 5.01251 24.6971L1.00826 28.6995C0.660918 29.0469 0.660918 29.6115 1.00826 29.9589C1.18282 30.1335 1.41082 30.219 1.63882 30.219C1.86682 30.219 2.09482 30.1317 2.26939 29.9589L6.38229 25.846C8.0157 27.1445 10.016 28.4484 12.4207 29.5866L9.05951 34.6293C8.78698 35.039 8.89742 35.5912 9.30711 35.8637C9.45851 35.9653 9.63129 36.0134 9.80051 36.0134C10.0873 36.0134 10.3687 35.8744 10.5415 35.6161L14.0809 30.308C16.4695 31.2788 19.2091 32.0483 22.3227 32.4865L20.3313 38.4608C20.1763 38.9275 20.4292 39.4316 20.8941 39.5865C20.9885 39.6186 21.0812 39.6329 21.1756 39.6329C21.5479 39.6329 21.8952 39.3977 22.0217 39.0237L24.1235 32.7145C25.3366 32.8267 26.5906 32.8962 27.9087 32.8962C29.6027 32.8962 31.1755 32.7679 32.6949 32.588L34.8395 39.0237C34.9642 39.396 35.3134 39.6329 35.6856 39.6329C35.78 39.6329 35.8727 39.6186 35.9671 39.5865C36.4338 39.4316 36.6849 38.9275 36.5299 38.4608L34.4975 32.36C37.5613 31.847 40.2439 30.9991 42.5737 29.9767L46.3197 35.6179C46.4925 35.8762 46.7739 36.0151 47.0607 36.0151C47.2317 36.0151 47.4027 35.967 47.5541 35.8655C47.962 35.593 48.0742 35.0408 47.8017 34.6311L44.1804 29.2019C46.5174 28.0155 48.4643 26.6814 50.0229 25.3793C50.0336 25.3918 50.0389 25.4096 50.0514 25.4203L54.5918 29.9589C54.7664 30.1335 54.9944 30.219 55.2224 30.219C55.4504 30.219 55.6784 30.1317 55.8529 29.9589C56.1967 29.6133 56.1967 29.0487 55.8494 28.7013ZM2.07879 18.648C2.07879 18.648 9.41042 2.6167 27.9069 2.6167C46.4034 2.6167 53.735 18.648 53.735 18.648C53.735 18.648 46.4034 31.1167 27.9069 31.1167C9.41042 31.1167 2.07879 18.648 2.07879 18.648Z" fill="#3E816D"/>
<g clip-path="url(#clip0_110_1573)">
<path d="M29.7084 14.0805C28.983 13.824 28.1948 13.805 27.4579 14.0262C26.7209 14.2475 26.0735 14.6974 25.6093 15.311C25.145 15.9246 24.8881 16.67 24.8756 17.4393C24.8631 18.2086 25.0957 18.962 25.5397 19.5903C25.9838 20.2186 26.6163 20.6894 27.3456 20.9344C28.075 21.1795 28.8634 21.1861 29.5968 20.9533C30.3301 20.7205 30.9704 20.2605 31.4249 19.6396C31.8795 19.0188 32.1247 18.2695 32.1251 17.5001V5.97016C37.0273 7.50958 40.5834 12.0892 40.5834 17.5001C40.5834 24.1737 35.1737 29.5834 28.5001 29.5834C21.8265 29.5834 16.4167 24.1737 16.4167 17.5001C16.4167 10.8265 21.8265 5.41675 28.5001 5.41675C28.9073 5.41675 29.3109 5.43729 29.7084 5.47716V14.0805Z" fill="#3E816D"/>
</g>
<defs>
<clipPath id="clip0_110_1573">
<rect width="29" height="29" fill="white" transform="translate(14 3)"/>
</clipPath>
</defs>
</svg>
