<svg width="167" height="136" viewBox="0 0 167 136" fill="none" xmlns="http://www.w3.org/2000/svg">
<path d="M95.4971 114.556C90.7447 113.877 86.4506 112.577 82.4597 110.728L82.7488 110.849C82.4279 110.7 82.0542 110.615 81.6594 110.615C80.1998 110.615 79.0152 111.805 79.0152 113.271C79.0152 114.34 79.6463 115.265 80.5559 115.686L80.5735 115.693C84.6949 117.616 89.4755 119.058 94.4888 119.784L94.7673 119.815C94.8731 119.833 94.993 119.844 95.1164 119.844C95.1234 119.844 95.1305 119.844 95.134 119.844C96.5936 119.844 97.7746 118.654 97.7746 117.188C97.7746 115.849 96.791 114.744 95.5077 114.56H95.4936L95.4971 114.556ZM55.2883 68.3484C55.2813 66.8858 54.1002 65.7065 52.6442 65.7065H52.6301C51.174 65.7136 50 66.9 50 68.3626C50 68.3661 50 68.3732 50 68.3767C50.0247 73.618 50.8144 78.668 52.2669 83.4276L52.1717 83.0593C52.5102 84.1642 53.515 84.954 54.7066 84.954C54.7101 84.954 54.7101 84.954 54.7137 84.954C54.9816 84.954 55.239 84.915 55.4822 84.8371L55.4646 84.8406C56.5646 84.5007 57.3508 83.4878 57.3508 82.2908C57.3508 82.0217 57.312 81.7596 57.2344 81.5153L57.2379 81.533C56.0216 77.5914 55.3095 73.0549 55.2883 68.3555V68.3484ZM53.8146 56.9628C54.0297 57.0301 54.273 57.0655 54.5303 57.0655C54.5338 57.0655 54.5374 57.0655 54.5444 57.0655C55.7466 57.0655 56.7585 56.2581 57.0793 55.1567L57.0828 55.139C58.4225 50.514 60.277 46.4768 62.6355 42.7937L62.5263 42.9779C62.7836 42.5742 62.9387 42.0819 62.9387 41.5542C62.9387 40.0881 61.7542 38.8982 60.2946 38.8982C59.3603 38.8982 58.5389 39.3834 58.07 40.12L58.0629 40.1306C55.5598 44.0297 53.4938 48.5272 52.0942 53.3152L52.0025 53.6835C51.939 53.9031 51.9003 54.1545 51.9003 54.4166C51.9003 55.6206 52.7006 56.6406 53.797 56.9628H53.8146ZM121.008 25.193C125.302 27.1443 129 29.5241 132.304 32.3573L132.24 32.3041C132.699 32.7043 133.305 32.9451 133.964 32.9451C135.424 32.9451 136.608 31.7552 136.608 30.2891C136.608 29.4781 136.245 28.7486 135.674 28.2634L135.671 28.2599C132.064 25.1647 127.943 22.5157 123.486 20.4794L123.162 20.3449C122.845 20.1961 122.471 20.1111 122.08 20.1111C120.62 20.1111 119.439 21.2975 119.439 22.7636C119.439 23.8437 120.081 24.7716 121.001 25.1859L121.019 25.193H121.008ZM69.4011 33.5011C69.4046 33.5011 69.4046 33.5011 69.4081 33.5011C70.0744 33.5011 70.6844 33.2497 71.1497 32.8389L71.1462 32.8424C74.3509 29.9951 78.0069 27.5551 81.9732 25.6605L82.2552 25.5401C83.1648 25.108 83.7818 24.1908 83.7818 23.1319C83.7818 21.6658 82.5972 20.4759 81.1376 20.4759C80.7322 20.4759 80.3479 20.568 80.0024 20.7309L80.02 20.7238C75.2922 22.969 71.2202 25.6853 67.5995 28.9009L67.6559 28.8513C67.1024 29.34 66.7569 30.0518 66.7569 30.8451C66.7569 32.3112 67.9415 33.5011 69.4011 33.5011ZM62.8154 93.6339C62.3359 92.9009 61.5215 92.4228 60.5978 92.4228C59.1382 92.4228 57.9536 93.6127 57.9536 95.0788C57.9536 95.6171 58.1123 96.1164 58.3873 96.5343L58.3802 96.5237C61.1689 100.791 64.3842 104.463 68.0437 107.637L68.1107 107.693C68.5726 108.093 69.1754 108.338 69.8347 108.338C71.2943 108.334 72.4753 107.148 72.4753 105.682C72.4753 104.878 72.1228 104.159 71.5622 103.674L71.5587 103.67C68.2094 100.77 65.3185 97.4693 62.9211 93.811L62.8118 93.6339H62.8154ZM149.226 56.2333C149.501 56.2333 149.766 56.1908 150.016 56.1094L149.999 56.1129C151.091 55.7694 151.871 54.7636 151.871 53.5737C151.871 53.2975 151.828 53.0283 151.751 52.7769L151.754 52.7946C150.171 47.6808 148.031 43.2258 145.341 39.1709L145.461 39.3621C144.982 38.6361 144.171 38.1651 143.251 38.1651C141.788 38.1651 140.603 39.355 140.603 40.8247C140.603 41.3701 140.765 41.8765 141.047 42.2979L141.04 42.2873C143.353 45.7579 145.278 49.7561 146.61 54.0199L146.699 54.3493C147.041 55.4471 148.042 56.2262 149.223 56.2262L149.226 56.2333ZM151.359 65.1293C149.872 65.2709 148.715 66.5175 148.715 68.0368C148.715 68.0509 148.715 68.0651 148.715 68.0757V68.0722C148.715 68.0934 148.715 68.1147 148.715 68.1359C148.715 72.8176 148.031 77.3364 146.759 81.6003L146.843 81.2709C146.776 81.494 146.737 81.749 146.737 82.0111C146.737 83.2152 147.531 84.2315 148.62 84.5644L148.638 84.568C148.86 84.6317 149.117 84.6707 149.382 84.6707C150.577 84.6671 151.589 83.8738 151.916 82.7796L151.92 82.7619C153.238 78.3741 154 73.3276 154 68.104C154 68.0934 154 68.0792 154 68.0686V67.4949C153.975 66.174 152.904 65.1151 151.585 65.1151C151.504 65.1151 151.426 65.1186 151.345 65.1257H151.356L151.359 65.1293ZM111.207 19.2824C111.221 19.1762 111.232 19.0558 111.232 18.9318C111.232 17.5897 110.237 16.4777 108.947 16.3041H108.933C106.853 16.0102 104.452 15.8438 102.012 15.8438C99.2448 15.8438 96.5266 16.0598 93.8719 16.4706L94.168 16.4316C92.8812 16.6264 91.9081 17.7278 91.9081 19.0593C91.9081 20.5255 93.0927 21.7154 94.5523 21.7154C94.6968 21.7154 94.8379 21.7047 94.9754 21.68L94.9613 21.6835C97.0801 21.3471 99.5268 21.1558 102.016 21.1558C104.209 21.1558 106.37 21.3046 108.485 21.5914L108.238 21.5631C108.334 21.5737 108.446 21.5808 108.559 21.5808C109.903 21.5808 111.013 20.5892 111.21 19.2931L111.214 19.2789L111.207 19.2824ZM121.502 110.732C117.807 112.481 113.523 113.802 109.028 114.482L108.771 114.514C107.484 114.709 106.507 115.81 106.507 117.142C106.507 118.608 107.692 119.798 109.152 119.798C109.155 119.798 109.166 119.798 109.173 119.798C109.303 119.798 109.43 119.787 109.553 119.769H109.539C114.828 118.973 119.594 117.499 124.026 115.421L123.705 115.555C124.622 115.123 125.246 114.206 125.246 113.143C125.246 111.677 124.061 110.487 122.602 110.487C122.203 110.487 121.826 110.576 121.487 110.735L121.505 110.728L121.502 110.732ZM144.982 92.5963C144.58 92.3307 144.086 92.1749 143.554 92.1749C142.623 92.1749 141.809 92.66 141.34 93.3896L141.333 93.4002C138.847 97.2497 135.977 100.564 132.706 103.429L132.649 103.479C132.096 103.968 131.747 104.683 131.747 105.476C131.747 106.942 132.931 108.132 134.391 108.132C135.054 108.132 135.657 107.888 136.122 107.484L136.118 107.488C139.824 104.244 143.018 100.554 145.655 96.4635L145.778 96.2616C146.043 95.8579 146.198 95.3621 146.198 94.8274C146.198 93.8924 145.715 93.0744 144.989 92.6034L144.982 92.5963Z" fill="#3E816D"/>
<path fill-rule="evenodd" clip-rule="evenodd" d="M163.812 127.5C163.812 130.353 161.478 132.688 158.625 132.688H8.1875C5.33437 132.688 3 130.353 3 127.5V8.1875C3 5.33437 5.33437 3 8.1875 3H158.625C161.478 3 163.812 5.33437 163.812 8.1875V127.5Z" stroke="#3E816D" stroke-width="5"/>
<path d="M101.562 86C111.59 86 119.719 77.8712 119.719 67.8438C119.719 57.8163 111.59 49.6875 101.562 49.6875C91.5351 49.6875 83.4062 57.8163 83.4062 67.8438C83.4062 77.8712 91.5351 86 101.562 86Z" stroke="#3E816D" stroke-width="5"/>
<path d="M101.562 73.0312C104.427 73.0312 106.75 70.7087 106.75 67.8438C106.75 64.9788 104.427 62.6562 101.562 62.6562C98.6975 62.6562 96.375 64.9788 96.375 67.8438C96.375 70.7087 98.6975 73.0312 101.562 73.0312Z" stroke="#3E816D" stroke-width="5"/>
<path d="M26.3438 36.7188C33.5062 36.7188 39.3125 30.9124 39.3125 23.75C39.3125 16.5876 33.5062 10.7812 26.3438 10.7812C19.1813 10.7812 13.375 16.5876 13.375 23.75C13.375 30.9124 19.1813 36.7188 26.3438 36.7188Z" stroke="#3E816D" stroke-width="5"/>
<path d="M28.1594 36.7188L36.7187 93.7812L93.7812 109.344" stroke="#3E816D" stroke-width="5"/>
<path d="M15.9688 101.562H34.125" stroke="#3E816D" stroke-width="5"/>
<path d="M15.9688 109.344H34.125" stroke="#3E816D" stroke-width="5"/>
<path d="M15.9688 119.719H34.125" stroke="#3E816D" stroke-width="5"/>
</svg>
