<svg width="26" height="26" viewBox="0 0 26 26" fill="none" xmlns="http://www.w3.org/2000/svg">
<g clip-path="url(#clip0_66_1909)">
<path d="M24.9502 14.1006C25.5605 13.4902 25.5605 12.499 24.9502 11.8887L18.7002 5.63867C18.0898 5.02832 17.0986 5.02832 16.4883 5.63867C15.8779 6.24902 15.8779 7.24023 16.4883 7.85059L20.0723 11.4346H9.78418C8.91992 11.4346 8.22168 12.1328 8.22168 12.9971C8.22168 13.8613 8.91992 14.5596 9.78418 14.5596H20.0723L16.4883 18.1436C15.8779 18.7539 15.8779 19.7451 16.4883 20.3555C17.0986 20.9658 18.0898 20.9658 18.7002 20.3555L24.9502 14.1055V14.1006ZM8.22168 5.18457C9.08594 5.18457 9.78418 4.48633 9.78418 3.62207C9.78418 2.75781 9.08594 2.05957 8.22168 2.05957H5.09668C2.50879 2.05957 0.40918 4.15918 0.40918 6.74707V19.2471C0.40918 21.835 2.50879 23.9346 5.09668 23.9346H8.22168C9.08594 23.9346 9.78418 23.2363 9.78418 22.3721C9.78418 21.5078 9.08594 20.8096 8.22168 20.8096H5.09668C4.23242 20.8096 3.53418 20.1113 3.53418 19.2471V6.74707C3.53418 5.88281 4.23242 5.18457 5.09668 5.18457H8.22168Z" fill="#808080"/>
</g>
<defs>
<clipPath id="clip0_66_1909">
<rect width="25" height="25" fill="white" transform="translate(0.40918 0.49707)"/>
</clipPath>
</defs>
</svg>
