<svg width="26" height="26" viewBox="0 0 26 26" fill="none" xmlns="http://www.w3.org/2000/svg">
<path d="M0.192139 12.9971C0.192139 9.68186 1.5091 6.50244 3.8533 4.15824C6.19751 1.81403 9.37693 0.49707 12.6921 0.49707C16.0073 0.49707 19.1868 1.81403 21.531 4.15824C23.8752 6.50244 25.1921 9.68186 25.1921 12.9971C25.1921 16.3123 23.8752 19.4917 21.531 21.8359C19.1868 24.1801 16.0073 25.4971 12.6921 25.4971C9.37693 25.4971 6.19751 24.1801 3.8533 21.8359C1.5091 19.4917 0.192139 16.3123 0.192139 12.9971ZM12.6921 8.30957C13.9353 8.30957 15.1276 8.80343 16.0067 9.68251C16.8858 10.5616 17.3796 11.7539 17.3796 12.9971C17.3796 14.2403 16.8858 15.4326 16.0067 16.3116C15.1276 17.1907 13.9353 17.6846 12.6921 17.6846C11.4489 17.6846 10.2567 17.1907 9.37758 16.3116C8.4985 15.4326 8.00464 14.2403 8.00464 12.9971C8.00464 11.7539 8.4985 10.5616 9.37758 9.68251C10.2567 8.80343 11.4489 8.30957 12.6921 8.30957ZM12.6921 19.2471C14.3497 19.2471 15.9395 18.5886 17.1116 17.4165C18.2837 16.2444 18.9421 14.6547 18.9421 12.9971C18.9421 11.3395 18.2837 9.74976 17.1116 8.57765C15.9395 7.40555 14.3497 6.74707 12.6921 6.74707C11.0345 6.74707 9.44482 7.40555 8.27272 8.57765C7.10062 9.74976 6.44214 11.3395 6.44214 12.9971C6.44214 14.6547 7.10062 16.2444 8.27272 17.4165C9.44482 18.5886 11.0345 19.2471 12.6921 19.2471ZM12.6921 14.5596C13.1065 14.5596 13.504 14.3949 13.797 14.1019C14.09 13.8089 14.2546 13.4115 14.2546 12.9971C14.2546 12.5827 14.09 12.1852 13.797 11.8922C13.504 11.5992 13.1065 11.4346 12.6921 11.4346C12.2777 11.4346 11.8803 11.5992 11.5873 11.8922C11.2943 12.1852 11.1296 12.5827 11.1296 12.9971C11.1296 13.4115 11.2943 13.8089 11.5873 14.1019C11.8803 14.3949 12.2777 14.5596 12.6921 14.5596Z" fill="#808080"/>
</svg>
