<svg width="25" height="23" viewBox="0 0 25 23" fill="none" xmlns="http://www.w3.org/2000/svg">
<g clip-path="url(#clip0_286_628)">
<g clip-path="url(#clip1_286_628)">
<path d="M13.7543 0.777494C13.5243 0.302359 13.0381 0 12.5043 0C11.9704 0 11.4887 0.302359 11.2543 0.777494L8.4635 6.49207L2.23086 7.40779C1.71002 7.48554 1.276 7.84837 1.11541 8.3451C0.954815 8.84183 1.08502 9.3904 1.45829 9.75755L5.98086 14.2109L4.91315 20.5042C4.82634 21.0226 5.04336 21.5495 5.47304 21.8562C5.90273 22.1629 6.47131 22.2018 6.94006 21.9556L12.5086 18.9968L18.0772 21.9556C18.546 22.2018 19.1145 22.1672 19.5442 21.8562C19.9739 21.5452 20.1909 21.0226 20.1041 20.5042L19.0321 14.2109L23.5546 9.75755C23.9279 9.3904 24.0625 8.84183 23.8975 8.3451C23.7326 7.84837 23.3029 7.48554 22.7821 7.40779L16.5451 6.49207L13.7543 0.777494Z" fill="#84C7AE"/>
</g>
</g>
<defs>
<clipPath id="clip0_286_628">
<rect width="25" height="22.2973" fill="white"/>
</clipPath>
<clipPath id="clip1_286_628">
<rect width="25" height="22.1154" fill="white"/>
</clipPath>
</defs>
</svg>
