<svg width="25" height="23" viewBox="0 0 25 23" fill="none" xmlns="http://www.w3.org/2000/svg">
<g clip-path="url(#clip0_286_633)">
<path d="M12.4956 0C12.8949 0 13.2595 0.226457 13.4331 0.587917L16.4106 6.74145L23.0599 7.72566C23.4505 7.78228 23.776 8.05664 23.8975 8.43552C24.0191 8.8144 23.9192 9.22376 23.6415 9.50248L18.8194 14.3016L19.9566 21.0779C20.0217 21.4699 19.8611 21.8662 19.5399 22.1013C19.2187 22.3365 18.789 22.3626 18.4418 22.1754L12.4956 18.9875L6.55379 22.171C6.20223 22.3583 5.77688 22.3321 5.4557 22.097C5.13452 21.8618 4.96959 21.4655 5.03469 21.0736L6.17185 14.2973L1.3498 9.50248C1.06768 9.22376 0.972193 8.81005 1.09372 8.43552C1.21525 8.061 1.54077 7.78663 1.93139 7.72566L8.5807 6.74145L11.5581 0.587917C11.7361 0.226457 12.0963 0 12.4956 0ZM12.4956 3.4404L10.217 8.15245C10.0651 8.46165 9.77428 8.6794 9.43139 8.73166L4.29685 9.48942L8.02514 13.1955C8.26386 13.435 8.37671 13.7747 8.32028 14.11L7.43921 19.3229L12.0052 16.8754C12.3133 16.7099 12.6823 16.7099 12.9861 16.8754L17.5521 19.3229L16.6753 14.1144C16.6189 13.779 16.7274 13.4393 16.9705 13.1998L20.6988 9.49377L15.5642 8.73166C15.2257 8.6794 14.9305 8.466 14.7786 8.15245L12.4956 3.4404Z" fill="#808080"/>
</g>
<defs>
<clipPath id="clip0_286_633">
<rect width="25" height="22.2973" fill="white"/>
</clipPath>
</defs>
</svg>
